<svg width="78.000000" height="72.000000" viewBox="0 0 78 72" fill="none" xmlns="http://www.w3.org/2000/svg" xmlns:xlink="http://www.w3.org/1999/xlink">
	<desc>
			Created with Pixso.
	</desc>
	<defs>
		<filter id="filter_21_621_dd" x="0.000000" y="0.000000" width="26.000000" height="26.000000" filterUnits="userSpaceOnUse" color-interpolation-filters="sRGB">
			<feFlood flood-opacity="0" result="BackgroundImageFix"/>
			<feColorMatrix in="SourceAlpha" type="matrix" values="0 0 0 0 0 0 0 0 0 0 0 0 0 0 0 0 0 0 127 0" result="hardAlpha"/>
			<feOffset dx="0" dy="4"/>
			<feGaussianBlur stdDeviation="1.33333"/>
			<feComposite in2="hardAlpha" operator="out" k2="-1" k3="1"/>
			<feColorMatrix type="matrix" values="0 0 0 0 0 0 0 0 0 0 0 0 0 0 0 0 0 0 0.25 0"/>
			<feBlend mode="normal" in2="BackgroundImageFix" result="effect_dropShadow_1"/>
			<feBlend mode="normal" in="SourceGraphic" in2="effect_dropShadow_1" result="shape"/>
		</filter>
		<filter id="filter_21_622_dd" x="31.000000" y="23.000000" width="47.000000" height="49.000000" filterUnits="userSpaceOnUse" color-interpolation-filters="sRGB">
			<feFlood flood-opacity="0" result="BackgroundImageFix"/>
			<feColorMatrix in="SourceAlpha" type="matrix" values="0 0 0 0 0 0 0 0 0 0 0 0 0 0 0 0 0 0 127 0" result="hardAlpha"/>
			<feOffset dx="0" dy="4"/>
			<feGaussianBlur stdDeviation="1.33333"/>
			<feComposite in2="hardAlpha" operator="out" k2="-1" k3="1"/>
			<feColorMatrix type="matrix" values="0 0 0 0 0 0 0 0 0 0 0 0 0 0 0 0 0 0 0.25 0"/>
			<feBlend mode="normal" in2="BackgroundImageFix" result="effect_dropShadow_1"/>
			<feBlend mode="normal" in="SourceGraphic" in2="effect_dropShadow_1" result="shape"/>
		</filter>
	</defs>
	<g filter="url(#filter_21_621_dd)">
		<path id="Star 5" d="M13 0L10.56 6.56L4 9L10.56 11.43L13 18L15.43 11.43L22 9L15.43 6.56L13 0Z" fill="#BCEC30" fill-opacity="1.000000" fill-rule="evenodd"/>
		<path id="Star 5" d="M10.56 6.56L4 9L10.56 11.43L13 18L15.43 11.43L22 9L15.43 6.56L13 0L10.56 6.56ZM13 2.88L11.34 7.34L6.88 9L11.34 10.65L13 15.11L14.65 10.65L19.11 9L14.65 7.34L13 2.88Z" fill="#202027" fill-opacity="1.000000" fill-rule="evenodd"/>
	</g>
	<g filter="url(#filter_21_622_dd)">
		<path id="Star 4" d="M49.23 37.96L35 43.5L49.23 49.03L54.5 64L59.76 49.03L74 43.5L59.76 37.96L54.5 23L49.23 37.96ZM54.5 26.01L50.02 38.72L37.75 43.5L50.02 48.27L54.5 60.98L58.97 48.27L71.24 43.5L58.97 38.72L54.5 26.01Z" fill="#202027" fill-opacity="1.000000" fill-rule="evenodd"/>
	</g>
</svg>
